<svg width="270" height="43" viewBox="0 0 270 43" fill="none" xmlns="http://www.w3.org/2000/svg">
<path d="M260.192 11.6105C257.315 11.6105 254.18 12.7008 252.262 15.7309V12.1203H248.588V37.4653H252.316V23.1786C252.316 18.3645 255.572 15.4194 259.517 15.4194C263.813 15.4194 266.298 18.2512 266.298 23.0795V37.4794H270V21.7627C270 15.6318 266.001 11.6247 260.192 11.6247V11.6105ZM231.768 15.3769C236.645 15.3769 240.36 19.3415 240.36 24.7928C240.36 30.2441 236.632 34.237 231.768 34.237C226.905 34.237 223.176 30.2724 223.176 24.7928C223.176 19.3132 226.878 15.3769 231.768 15.3769ZM231.768 11.6247C224.689 11.6247 219.394 17.3025 219.394 24.7928C219.394 32.283 224.689 37.9891 231.768 37.9891C238.847 37.9891 244.17 32.3113 244.17 24.7928C244.17 17.2742 238.861 11.6247 231.768 11.6247ZM213.125 0.297343C211.639 0.297343 210.518 1.52919 210.518 3.12918C210.518 4.72917 211.639 5.93271 213.125 5.93271C214.611 5.93271 215.76 4.72917 215.76 3.12918C215.76 1.52919 214.584 0.297343 213.125 0.297343ZM214.99 12.1203H211.261V37.4653H214.99V12.1203ZM205.857 12.1203H195.698V4.06369H191.996V12.1203H186.849V15.7309H191.996V28.6016C191.996 34.9732 195.009 37.9608 200.075 37.9608C202.953 37.9608 205.29 36.8847 207.059 35.4405L205.317 32.4104C203.952 33.4865 202.183 34.2086 200.372 34.2086C197.643 34.2086 195.698 32.4671 195.698 28.5025V15.7309H205.857V12.1203ZM170.611 15.3627C175.501 15.3627 178.987 19.4264 178.987 24.7786C178.987 30.1308 175.515 34.2228 170.611 34.2228C165.707 34.2228 162.195 30.0175 162.195 24.7786C162.195 19.5397 165.572 15.3627 170.611 15.3627ZM182.459 12.1203H178.757V15.9008C176.893 13.3238 174.042 11.6247 170.165 11.6247C163.559 11.6247 158.412 17.1893 158.412 24.7928C158.412 32.3963 163.559 37.9891 170.165 37.9891C174.042 37.9891 176.893 36.3042 178.757 33.7131V37.4936H182.459V12.1203ZM147.132 11.6105C139.904 11.6105 134.96 17.2884 134.96 24.7786C134.96 32.2688 139.904 37.975 147.132 37.975C150.603 37.975 153.711 36.5874 155.845 33.9963L153.535 31.2635C151.873 33.0051 149.59 34.237 147.023 34.237C142.309 34.237 138.729 30.2724 138.729 24.7928C138.729 19.3132 142.309 15.3769 147.023 15.3769C149.577 15.3769 151.698 16.4672 153.454 18.322L155.832 15.6176C153.724 13.0265 150.59 11.6389 147.118 11.6389L147.132 11.6105ZM130.299 12.1486H126.57V26.5485C126.57 31.7874 123.639 34.2511 119.613 34.2511C115.587 34.2511 112.628 31.7874 112.628 26.5485V12.1203H108.927V26.8883C108.927 34.4069 113.925 37.9608 119.613 37.9608C125.3 37.9608 130.299 34.4069 130.299 26.8883V12.1203V12.1486ZM92.148 15.3911C97.0385 15.3911 100.524 19.4547 100.524 24.8069C100.524 30.1591 97.052 34.2511 92.148 34.2511C87.2441 34.2511 83.7317 30.0458 83.7317 24.8069C83.7317 19.568 87.109 15.3911 92.148 15.3911ZM91.7022 11.6389C85.0961 11.6389 79.949 17.2034 79.949 24.8069C79.949 32.4104 85.0961 38.0033 91.7022 38.0033C95.5794 38.0033 98.4299 36.3184 100.294 33.7272V37.5077H103.996V0H100.294V15.9008C98.4299 13.3238 95.5794 11.6247 91.7022 11.6247V11.6389ZM75.5719 33.4299H55.1051V20.6016H74.7344V16.5946H55.1051V4.03537H75.3558V0H51.1063V37.4653H75.5719V33.4157V33.4299Z" fill="white"/>
<path d="M0 0V42.8174L14.9009 26.7609H4.97148V5.35218H19.8724V10.5203H10.3618V13.3521H19.2915V18.5202H10.3618V21.4087H19.8724V37.4653H34.7733V32.1131H25.2627V15.6034L39.7448 0H0Z" fill="white"/>
</svg>
