<svg width="64" height="64" viewBox="0 0 64 64" fill="none" xmlns="http://www.w3.org/2000/svg">
<circle cx="32" cy="32" r="30" stroke="#211651" stroke-width="4"/>
<path fill-rule="evenodd" clip-rule="evenodd" d="M34.64 32.0004L40.7869 25.8535C41.5168 25.1236 41.5168 23.9439 40.7869 23.214C40.057 22.4842 38.8773 22.4842 38.1474 23.214L32.0005 29.361L25.8536 23.214C25.1237 22.4842 23.944 22.4842 23.2141 23.214C22.4842 23.9439 22.4842 25.1236 23.2141 25.8535L29.361 32.0004L23.2141 38.1474C22.4842 38.8772 22.4842 40.057 23.2141 40.7868C23.5781 41.1508 24.056 41.3338 24.5338 41.3338C25.0117 41.3338 25.4896 41.1508 25.8536 40.7868L32.0005 34.6399L38.1474 40.7868C38.5114 41.1508 38.9893 41.3338 39.4672 41.3338C39.945 41.3338 40.4229 41.1508 40.7869 40.7868C41.5168 40.057 41.5168 38.8772 40.7869 38.1474L34.64 32.0004Z" fill="#211651"/>
</svg>
