<svg width="400" height="127" viewBox="0 0 400 127" fill="none" xmlns="http://www.w3.org/2000/svg">
<path d="M0 0.250244V126.659L46.2282 79.2615H15.4167V16.057H61.6449V31.3008H32.1511V39.6771H59.8441V54.9209H32.1511V63.4547H61.6449V110.852H107.873V95.0457H78.3793V46.297L123.29 0.250244H0Z" fill="#66619F"/>
<path d="M165.455 110.898H116.789V45.7341H165.258V59.7395H131.942V71.0204H163.325V84.9808H131.942V96.8922H165.455V110.898Z" fill="#66619F"/>
<path d="M211.881 110.898H193.807L170.287 45.7341H186.406L202.943 94.8882L219.545 45.7341H235.335L211.881 110.898Z" fill="#66619F"/>
<path d="M254.288 83.1569H269.727L262.018 61.1806L254.31 83.1569H254.288ZM295.597 110.898H279.433L274.624 97.2074H249.391L244.581 110.898H228.725L253.102 45.7341H271.22L295.597 110.898Z" fill="#66619F"/>
<path d="M343.296 60.1674H324.498V110.898H309.323V60.1674H290.48V45.7341H343.296V60.1674Z" fill="#66619F"/>
<path d="M400 110.898H350.214V45.7341H399.824V59.7395H365.389V71.0204H397.87V84.9808H365.389V96.8922H400V110.898Z" fill="#66619F"/>
</svg>
