<svg width="200" height="32" viewBox="0 0 200 32" fill="none" xmlns="http://www.w3.org/2000/svg">
<path d="M192.6 8.54589C190.47 8.54589 188.15 9.33537 186.73 11.5295V8.91499H184.01V27.2679H186.77V16.9226C186.77 13.4366 189.18 11.3039 192.1 11.3039C195.28 11.3039 197.12 13.3545 197.12 16.8508V27.2781H199.86V15.8973C199.86 11.4577 196.9 8.55614 192.6 8.55614V8.54589ZM171.56 11.2732C175.17 11.2732 177.92 14.144 177.92 18.0914C177.92 22.0388 175.16 24.9302 171.56 24.9302C167.96 24.9302 165.2 22.0593 165.2 18.0914C165.2 14.1235 167.94 11.2732 171.56 11.2732V11.2732ZM171.56 8.55614C166.32 8.55614 162.4 12.6676 162.4 18.0914C162.4 23.5153 166.32 27.6472 171.56 27.6472C176.8 27.6472 180.74 23.5358 180.74 18.0914C180.74 12.6471 176.81 8.55614 171.56 8.55614ZM157.76 0.353741C156.66 0.353741 155.83 1.24575 155.83 2.40434C155.83 3.56293 156.66 4.43443 157.76 4.43443C158.86 4.43443 159.71 3.56293 159.71 2.40434C159.71 1.24575 158.84 0.353741 157.76 0.353741V0.353741ZM159.14 8.91499H156.38V27.2679H159.14V8.91499V8.91499ZM152.38 8.91499H144.86V3.08104H142.12V8.91499H138.31V11.5295H142.12V20.8495C142.12 25.4633 144.35 27.6267 148.1 27.6267C150.23 27.6267 151.96 26.8475 153.27 25.8017L151.98 23.6075C150.97 24.3868 149.66 24.9097 148.32 24.9097C146.3 24.9097 144.86 23.6486 144.86 20.7777V11.5295H152.38V8.91499V8.91499ZM126.29 11.2629C129.91 11.2629 132.49 14.2055 132.49 18.0812C132.49 21.9568 129.92 24.9199 126.29 24.9199C122.66 24.9199 120.06 21.8748 120.06 18.0812C120.06 14.2876 122.56 11.2629 126.29 11.2629V11.2629ZM135.06 8.91499H132.32V11.6525C130.94 9.7865 128.83 8.55614 125.96 8.55614C121.07 8.55614 117.26 12.5856 117.26 18.0914C117.26 23.5973 121.07 27.6472 125.96 27.6472C128.83 27.6472 130.94 26.4271 132.32 24.5508V27.2884H135.06V8.91499V8.91499ZM108.91 8.54589C103.56 8.54589 99.9001 12.6573 99.9001 18.0812C99.9001 23.505 103.56 27.637 108.91 27.637C111.48 27.637 113.78 26.6322 115.36 24.7559L113.65 22.777C112.42 24.0382 110.73 24.9302 108.83 24.9302C105.34 24.9302 102.69 22.0593 102.69 18.0914C102.69 14.1235 105.34 11.2732 108.83 11.2732C110.72 11.2732 112.29 12.0627 113.59 13.4058L115.35 11.4475C113.79 9.57119 111.47 8.56639 108.9 8.56639L108.91 8.54589ZM96.4501 8.9355H93.6901V19.3628C93.6901 23.1564 91.5201 24.9404 88.5401 24.9404C85.5601 24.9404 83.3701 23.1564 83.3701 19.3628V8.91499H80.6301V19.6089C80.6301 25.0532 84.3301 27.6267 88.5401 27.6267C92.7501 27.6267 96.4501 25.0532 96.4501 19.6089V8.91499V8.9355ZM68.2101 11.2834C71.8301 11.2834 74.4101 14.226 74.4101 18.1017C74.4101 21.9773 71.8401 24.9404 68.2101 24.9404C64.5801 24.9404 61.9801 21.8953 61.9801 18.1017C61.9801 14.3081 64.4801 11.2834 68.2101 11.2834V11.2834ZM67.8801 8.56639C62.9901 8.56639 59.1801 12.5958 59.1801 18.1017C59.1801 23.6075 62.9901 27.6575 67.8801 27.6575C70.7501 27.6575 72.8601 26.4374 74.2401 24.5611V27.2986H76.9801V0.138428H74.2401V11.6525C72.8601 9.7865 70.7501 8.55614 67.8801 8.55614V8.56639ZM55.9401 24.3458H40.7901V15.0565H55.3201V12.1549H40.7901V3.06053H55.7801V0.138428H37.8301V27.2679H55.9401V24.3355V24.3458Z" fill="white"/>
<path d="M0 0.138428V31.1435L11.03 19.5166H3.68V4.01406H14.71V7.7564H7.67V9.80701H14.28V13.5493H7.67V15.641H14.71V27.2679H25.74V23.3922H18.7V11.4372L29.42 0.138428H0Z" fill="white"/>
</svg>
